<?xml version="1.0" encoding="utf-8"?>
<!-- Generator: Adobe Illustrator 22.0.0, SVG Export Plug-In . SVG Version: 6.00 Build 0)  -->
<svg version="1.1" id="Layer_1" xmlns="http://www.w3.org/2000/svg" xmlns:xlink="http://www.w3.org/1999/xlink" x="0px" y="0px"
	 width="404.7px" height="98.2px" viewBox="0 0 404.7 98.2" style="enable-background:new 0 0 404.7 98.2;" xml:space="preserve">
<style type="text/css">
	.st0{opacity:0.64;}
	.st1{fill:#FFFFFF;}
	.st2{display:none;}
	.st3{display:inline;fill:#5880FA;}
</style>
<g>
	<g class="st0">
		<g id="layer101_2_">
			<path class="st1" d="M6.6,88.6c-0.9-0.5-1.9-1.4-2.5-2.2C2.2,83.5,3.3,80,8.5,72.1c7.7-11.6,17.4-20.1,26.9-23.5l2.2-0.8l-2.6-4
				c-2.9-4.5-3.5-6.3-3.3-9.9c0.1-2,0.7-3.5,5.1-13c3.4-7.5,5.3-11.1,6-11.9c1.3-1.3,3.4-2,5-1.7c1.4,0.3,3.4,2,4.6,3.8
				c1.4,2.2,15.7,25.5,30.7,50.1c7.5,12.2,14.4,23.5,15.5,25c1.1,1.5,1.9,2.9,1.9,2.9c0,0.1-7.3,0.1-16.2,0.1l-16.1-0.1L65.9,88
				c-3.6-1.8-2.5-0.4-17.1-23l-6.4-9.9l-1.5,0.2C39,55.5,35.1,57.1,32,59c-6.2,3.7-13.6,11.8-19.1,21l-0.8,1.3h11h11l-3.3-4.8
				c-1.8-2.7-3.4-5-3.5-5.3c-0.3-0.5,6.1-4.9,6.5-4.5c0.2,0.3,2.9,4.2,8.2,12c1.4,2.1,1.7,2.9,1.9,4.6c0.1,1.8,0.1,2.3-0.7,3.3
				c-0.5,0.7-1.5,1.6-2.4,2c-1.6,0.8-1.7,0.8-17.1,0.8C8.5,89.4,8.1,89.3,6.6,88.6z M85.1,80.8c-1-1.7-7-8.5-10.3-11.9
				c-4.8-4.7-9.1-8-13.4-10.3c-3.1-1.7-8.3-3.6-9-3.4c-0.3,0.1,0.5,1.5,1.9,3.7c1.3,1.9,4.8,7.3,7.8,12c3,4.6,5.9,8.9,6.4,9.4l1,1h8
				C83.6,81.2,85.3,81.1,85.1,80.8z M68.6,52.9c-0.2-0.4-3.5-5.9-7.4-12.1c-3.8-6.2-8.6-14-10.6-17.3c-2-3.2-3.7-5.9-3.7-5.8
				c-0.5,0.6-7.6,16.6-7.6,17.3c0,0.8,1.7,3.7,5.3,9.1l1.6,2.3l3.2,0.2c3.5,0.2,5.9,0.7,9.4,2c2.4,0.8,6.8,3,8.6,4.2
				C68.9,53.9,69.1,53.9,68.6,52.9z"/>
		</g>
	</g>
	<g id="layer101_1_">
		<path class="st1" d="M10.3,89.2c-0.9-0.5-1.9-1.4-2.5-2.2c-1.9-2.9-0.9-6.4,4.3-14.4C19.8,61,29.5,52.5,39,49.2l2.2-0.8l-2.6-4
			c-2.9-4.5-3.5-6.3-3.3-9.9c0.1-2,0.7-3.5,5.1-13c3.4-7.5,5.3-11.1,6-11.9c1.3-1.3,3.4-2,5-1.7c1.4,0.3,3.4,2,4.6,3.8
			c1.4,2.2,15.7,25.5,30.7,50.1c7.5,12.2,14.4,23.5,15.5,25c1.1,1.5,1.9,2.9,1.9,2.9c0,0.1-7.3,0.1-16.2,0.1l-16.1-0.1l-2.3-1.1
			c-3.6-1.8-2.5-0.4-17.1-23l-6.4-9.9l-1.5,0.2c-1.9,0.2-5.8,1.8-8.9,3.7c-6.2,3.7-13.6,11.8-19.1,21l-0.8,1.3h11h11L34.5,77
			c-1.8-2.7-3.4-5-3.5-5.3c-0.3-0.5,6.1-4.9,6.5-4.5c0.2,0.3,2.9,4.2,8.2,12c1.4,2.1,1.7,2.9,1.9,4.6c0.1,1.8,0.1,2.3-0.7,3.3
			c-0.5,0.7-1.5,1.6-2.4,2c-1.6,0.8-1.7,0.8-17.1,0.8C12.2,89.9,11.8,89.9,10.3,89.2z M88.7,81.4c-1-1.7-7-8.5-10.3-11.9
			c-4.8-4.7-9.1-8-13.4-10.3c-3.1-1.7-8.3-3.6-9-3.4c-0.3,0.1,0.5,1.5,1.9,3.7c1.3,1.9,4.8,7.3,7.8,12c3,4.6,5.9,8.9,6.4,9.4l1,1h8
			C87.3,81.8,88.9,81.7,88.7,81.4z M72.3,53.5c-0.2-0.4-3.5-5.9-7.4-12.1c-3.8-6.2-8.6-14-10.6-17.3c-2-3.2-3.7-5.9-3.7-5.8
			c-0.5,0.6-7.6,16.6-7.6,17.3c0,0.8,1.7,3.7,5.3,9.1l1.6,2.3l3.2,0.2c3.5,0.2,5.9,0.7,9.4,2c2.4,0.8,6.8,3,8.6,4.2
			C72.5,54.4,72.8,54.4,72.3,53.5z"/>
	</g>
</g>
<g id="ARIONUM">
	<g class="st2">
		<path class="st3" d="M131,65.9h-10.2l-0.9-8h-14.4l-4.6,8H90.3l23.5-39.3h11.7L131,65.9z M119.1,50.8l-1.6-14l-8,14H119.1z"/>
		<path class="st3" d="M175.7,36.5c0,3.1-1,5.8-2.9,7.9c-1.9,2.1-4.5,3.8-7.8,4.9l9.1,16.6h-11.3l-7.4-14.4h-5.7l-3.3,14.4h-10.1
			l9.1-39.3h15.3c4.8,0,8.5,0.8,11.1,2.4C174.4,30.7,175.7,33.2,175.7,36.5z M164.7,38.2c0-1.6-0.5-2.7-1.5-3.4c-1-0.7-2.5-1-4.5-1
			h-5l-2.4,10.5h5c2.7,0,4.8-0.5,6.2-1.6C164,41.7,164.7,40.2,164.7,38.2z"/>
		<path class="st3" d="M199.7,65.9h-23l1.6-7h6.4l5.9-25.3h-6.4l1.6-7h23l-1.6,7h-6.4l-5.9,25.3h6.4L199.7,65.9z"/>
		<path class="st3" d="M251.4,41.2c0,3.2-0.5,6.4-1.6,9.5c-1.1,3.1-2.7,5.8-4.7,8.1c-2.3,2.5-4.9,4.5-7.9,5.8s-6.5,2-10.4,2
			c-5.4,0-9.6-1.4-12.6-4.2c-3-2.8-4.5-6.6-4.5-11.4c0-3.4,0.6-6.7,1.7-9.7c1.2-3.1,2.8-5.8,5-8.1c2.1-2.3,4.7-4.1,7.8-5.4
			c3.1-1.4,6.5-2,10.2-2c5.4,0,9.6,1.4,12.6,4.2C249.9,32.8,251.4,36.5,251.4,41.2z M236.9,54.6c1.2-1.6,2.1-3.4,2.8-5.4
			c0.7-2.1,1-4.4,1-7.1c0-2.8-0.7-5-2-6.6c-1.3-1.6-3.3-2.4-5.8-2.4c-1.6,0-3.2,0.4-4.7,1.1c-1.5,0.7-2.9,1.9-4.1,3.4
			c-1.2,1.5-2.2,3.3-2.9,5.4c-0.7,2.2-1.1,4.6-1.1,7.3c0,3,0.7,5.3,2.1,6.8c1.4,1.5,3.3,2.3,5.7,2.3c1.7,0,3.3-0.4,4.9-1.3
			C234.4,57.4,235.8,56.2,236.9,54.6z"/>
		<path class="st3" d="M289.6,65.9H281l-11.5-27.2l-6.3,27.2h-9.3l9.1-39.3h11.3l9.9,22.7l5.2-22.7h9.4L289.6,65.9z"/>
		<path class="st3" d="M343.1,26.6l-5.7,24.5c-1.3,5.4-3.5,9.4-6.5,11.8s-7.5,3.7-13.3,3.7c-5.2,0-9.1-0.9-11.7-2.8
			c-2.7-1.9-4-4.7-4-8.4c0-0.8,0.1-1.6,0.2-2.3s0.3-1.5,0.4-2.2l5.6-24.3h10.2L312.7,51c-0.1,0.5-0.2,1-0.3,1.6
			c-0.1,0.6-0.1,1.1-0.1,1.5c0,1.7,0.5,2.9,1.5,3.8c1,0.9,2.6,1.3,4.9,1.3c2.2,0,4-0.6,5.4-1.8c1.4-1.2,2.4-3.1,3-5.7l5.8-24.9
			H343.1z"/>
		<path class="st3" d="M384.6,65.9h-10.1l5.9-25.7l-10.8,16.5h-7l-3.5-17.5L353,65.9h-9.6l9.1-39.3h11.6l4.3,19.7l13.3-19.7h11.9
			L384.6,65.9z"/>
	</g>
	<g>
		<path class="st1" d="M135,67.8h-10.2l-0.9-8h-14.4l-4.6,8H94.3l23.5-39.3h11.7L135,67.8z M123.2,52.7l-1.6-14l-8,14H123.2z"/>
		<path class="st1" d="M179.7,38.4c0,3.1-1,5.8-2.9,7.9c-1.9,2.1-4.5,3.8-7.8,4.9l9.1,16.6h-11.3l-7.4-14.4h-5.7l-3.3,14.4h-10.1
			l9.1-39.3h15.3c4.8,0,8.5,0.8,11.1,2.4C178.4,32.6,179.7,35.1,179.7,38.4z M168.8,40.1c0-1.6-0.5-2.7-1.5-3.4c-1-0.7-2.5-1-4.5-1
			h-5l-2.4,10.5h5c2.7,0,4.8-0.5,6.2-1.6C168,43.6,168.8,42.1,168.8,40.1z"/>
		<path class="st1" d="M203.7,67.8h-23l1.6-7h6.4l5.9-25.3h-6.4l1.6-7h23l-1.6,7h-6.4l-5.9,25.3h6.4L203.7,67.8z"/>
		<path class="st1" d="M255.4,43.1c0,3.2-0.5,6.4-1.6,9.5c-1.1,3.1-2.7,5.8-4.7,8.1c-2.3,2.5-4.9,4.5-7.9,5.8s-6.5,2-10.4,2
			c-5.4,0-9.6-1.4-12.6-4.2c-3-2.8-4.5-6.6-4.5-11.4c0-3.4,0.6-6.7,1.7-9.7c1.2-3.1,2.8-5.8,5-8.1c2.1-2.3,4.7-4.1,7.8-5.4
			c3.1-1.4,6.5-2,10.2-2c5.4,0,9.6,1.4,12.6,4.2C253.9,34.7,255.4,38.4,255.4,43.1z M240.9,56.5c1.2-1.6,2.1-3.4,2.8-5.4
			c0.7-2.1,1-4.4,1-7.1c0-2.8-0.7-5-2-6.6c-1.3-1.6-3.3-2.4-5.8-2.4c-1.6,0-3.2,0.4-4.7,1.1c-1.5,0.7-2.9,1.9-4.1,3.4
			c-1.2,1.5-2.2,3.3-2.9,5.4c-0.7,2.2-1.1,4.6-1.1,7.3c0,3,0.7,5.3,2.1,6.8c1.4,1.5,3.3,2.3,5.7,2.3c1.7,0,3.3-0.4,4.9-1.3
			S239.8,58.1,240.9,56.5z"/>
		<path class="st1" d="M293.7,67.8H285l-11.5-27.2l-6.3,27.2h-9.3l9.1-39.3h11.3l9.9,22.7l5.2-22.7h9.4L293.7,67.8z"/>
		<path class="st1" d="M347.1,28.5l-5.7,24.5c-1.3,5.4-3.5,9.4-6.5,11.8s-7.5,3.7-13.3,3.7c-5.2,0-9.1-0.9-11.7-2.8s-4-4.7-4-8.4
			c0-0.8,0.1-1.6,0.2-2.3s0.3-1.5,0.4-2.2l5.6-24.3h10.2l-5.6,24.3c-0.1,0.5-0.2,1-0.3,1.6s-0.1,1.1-0.1,1.5c0,1.7,0.5,2.9,1.5,3.8
			s2.6,1.3,4.9,1.3c2.2,0,4-0.6,5.4-1.8c1.4-1.2,2.4-3.1,3-5.7l5.8-24.9H347.1z"/>
		<path class="st1" d="M388.6,67.8h-10.1l5.9-25.7l-10.8,16.5h-7L363.2,41L357,67.8h-9.6l9.1-39.3h11.6l4.3,19.7l13.3-19.7h11.9
			L388.6,67.8z"/>
	</g>
</g>
</svg>
