<?xml version="1.0" encoding="utf-8"?>
<!-- Generator: Adobe Illustrator 22.0.0, SVG Export Plug-In . SVG Version: 6.00 Build 0)  -->
<svg version="1.1" id="Layer_1" xmlns="http://www.w3.org/2000/svg" xmlns:xlink="http://www.w3.org/1999/xlink" x="0px" y="0px"
	 width="101.1px" height="84.3px" viewBox="0 0 101.1 84.3" style="enable-background:new 0 0 101.1 84.3;" xml:space="preserve">
<style type="text/css">
	.st0{opacity:0.5;}
	.st1{fill:#FFFFFF;}
	.st2{display:none;}
	.st3{display:inline;fill:#5880FA;}
	.st4{display:inline;}
	.st5{fill:#2F36C9;}
</style>
<g>
	<g class="st0">
		<g id="layer101_2_">
			<path class="st1" d="M4.1,82.3c-0.9-0.5-1.9-1.4-2.5-2.2c-1.9-2.9-0.8-6.4,4.4-14.3c7.7-11.6,17.4-20.1,26.9-23.5l2.2-0.8l-2.6-4
				c-2.9-4.5-3.5-6.3-3.3-9.9c0.1-2,0.7-3.5,5.1-13c3.4-7.5,5.3-11.1,6-11.9c1.3-1.3,3.4-2,5-1.7c1.4,0.3,3.4,2,4.6,3.8
				C51.3,7,65.6,30.3,80.6,54.9c7.5,12.2,14.4,23.5,15.5,25s1.9,2.9,1.9,2.9c0,0.1-7.3,0.1-16.2,0.1l-16.1-0.1l-2.3-1.1
				c-3.6-1.8-2.5-0.4-17.1-23l-6.4-9.9L38.4,49c-1.9,0.2-5.8,1.8-8.9,3.7c-6.2,3.7-13.6,11.8-19.1,21L9.6,75h11h11l-3.3-4.8
				c-1.8-2.7-3.4-5-3.5-5.3c-0.3-0.5,6.1-4.9,6.5-4.5c0.2,0.3,2.9,4.2,8.2,12c1.4,2.1,1.7,2.9,1.9,4.6c0.1,1.8,0.1,2.3-0.7,3.3
				c-0.5,0.7-1.5,1.6-2.4,2c-1.6,0.8-1.7,0.8-17.1,0.8C6,83.1,5.6,83,4.1,82.3z M82.6,74.5c-1-1.7-7-8.5-10.3-11.9
				c-4.8-4.7-9.1-8-13.4-10.3c-3.1-1.7-8.3-3.6-9-3.4c-0.3,0.1,0.5,1.5,1.9,3.7c1.3,1.9,4.8,7.3,7.8,12c3,4.6,5.9,8.9,6.4,9.4l1,1h8
				C81.1,74.9,82.8,74.8,82.6,74.5z M66.1,46.6c-0.2-0.4-3.5-5.9-7.4-12.1c-3.8-6.2-8.6-14-10.6-17.3c-2-3.2-3.7-5.9-3.7-5.8
				C43.9,12,36.8,28,36.8,28.7c0,0.8,1.7,3.7,5.3,9.1l1.6,2.3l3.2,0.2c3.5,0.2,5.9,0.7,9.4,2c2.4,0.8,6.8,3,8.6,4.2
				C66.4,47.6,66.6,47.6,66.1,46.6z"/>
		</g>
	</g>
	<g id="layer101_1_">
		<path class="st1" d="M7.8,82.9c-0.9-0.5-1.9-1.4-2.5-2.2c-1.9-2.9-0.9-6.4,4.3-14.4C17.3,54.7,27,46.2,36.5,42.9l2.2-0.8l-2.6-4
			c-2.9-4.5-3.5-6.3-3.3-9.9c0.1-2,0.7-3.5,5.1-13c3.4-7.5,5.3-11.1,6-11.9c1.3-1.3,3.4-2,5-1.7c1.4,0.3,3.4,2,4.6,3.8
			c1.4,2.2,15.7,25.5,30.7,50.1c7.5,12.2,14.4,23.5,15.5,25s1.9,2.9,1.9,2.9c0,0.1-7.3,0.1-16.2,0.1l-16.1-0.1L67,82.3
			c-3.6-1.8-2.5-0.4-17.1-23l-6.4-9.9L42,49.6c-1.9,0.2-5.8,1.8-8.9,3.7C26.9,57,19.5,65.1,14,74.3l-0.8,1.3h11h11L32,70.7
			c-1.8-2.7-3.4-5-3.5-5.3c-0.3-0.5,6.1-4.9,6.5-4.5c0.2,0.3,2.9,4.2,8.2,12c1.4,2.1,1.7,2.9,1.9,4.6c0.1,1.8,0.1,2.3-0.7,3.3
			c-0.5,0.7-1.5,1.6-2.4,2c-1.6,0.8-1.7,0.8-17.1,0.8C9.7,83.6,9.3,83.6,7.8,82.9z M86.2,75.1c-1-1.7-7-8.5-10.3-11.9
			c-4.8-4.7-9.1-8-13.4-10.3c-3.1-1.7-8.3-3.6-9-3.4c-0.3,0.1,0.5,1.5,1.9,3.7c1.3,1.9,4.8,7.3,7.8,12c3,4.6,5.9,8.9,6.4,9.4l1,1h8
			C84.8,75.5,86.4,75.4,86.2,75.1z M69.8,47.2c-0.2-0.4-3.5-5.9-7.4-12.1c-3.8-6.2-8.6-14-10.6-17.3c-2-3.2-3.7-5.9-3.7-5.8
			c-0.5,0.6-7.6,16.6-7.6,17.3c0,0.8,1.7,3.7,5.3,9.1l1.6,2.3l3.2,0.2c3.5,0.2,5.9,0.7,9.4,2c2.4,0.8,6.8,3,8.6,4.2
			C70,48.1,70.3,48.1,69.8,47.2z"/>
	</g>
</g>
<g id="ARIONUM" class="st2">
	<g>
		<path class="st3" d="M-63.3,142.6h-10.2l-0.9-8h-14.4l-4.6,8H-104l23.5-39.3h11.7L-63.3,142.6z M-75.2,127.5l-1.6-14l-8,14H-75.2z
			"/>
		<path class="st3" d="M-18.6,113.2c0,3.1-1,5.8-2.9,7.9s-4.5,3.8-7.8,4.9l9.1,16.6h-11.3l-7.4-14.4h-5.7l-3.3,14.4H-58l9.1-39.3
			h15.3c4.8,0,8.5,0.8,11.1,2.4C-19.9,107.4-18.6,109.9-18.6,113.2z M-29.6,114.9c0-1.6-0.5-2.7-1.5-3.4c-1-0.7-2.5-1-4.5-1h-5
			L-43,121h5c2.7,0,4.8-0.5,6.2-1.6C-30.3,118.4-29.6,116.9-29.6,114.9z"/>
		<path class="st3" d="M5.4,142.6h-23l1.6-7h6.4l5.9-25.3h-6.4l1.6-7h23l-1.6,7H6.5l-5.9,25.3H7L5.4,142.6z"/>
		<path class="st3" d="M57.1,117.9c0,3.2-0.5,6.4-1.6,9.5c-1.1,3.1-2.7,5.8-4.7,8.1c-2.3,2.5-4.9,4.5-7.9,5.8s-6.5,2-10.4,2
			c-5.4,0-9.6-1.4-12.6-4.2c-3-2.8-4.5-6.6-4.5-11.4c0-3.4,0.6-6.7,1.7-9.7c1.2-3.1,2.8-5.8,5-8.1c2.1-2.3,4.7-4.1,7.8-5.4
			c3.1-1.4,6.5-2,10.2-2c5.4,0,9.6,1.4,12.6,4.2C55.6,109.5,57.1,113.2,57.1,117.9z M42.6,131.3c1.2-1.6,2.1-3.4,2.8-5.4
			c0.7-2.1,1-4.4,1-7.1c0-2.8-0.7-5-2-6.6s-3.3-2.4-5.8-2.4c-1.6,0-3.2,0.4-4.7,1.1c-1.5,0.7-2.9,1.9-4.1,3.4
			c-1.2,1.5-2.2,3.3-2.9,5.4c-0.7,2.2-1.1,4.6-1.1,7.3c0,3,0.7,5.3,2.1,6.8c1.4,1.5,3.3,2.3,5.7,2.3c1.7,0,3.3-0.4,4.9-1.3
			C40.1,134.1,41.5,132.9,42.6,131.3z"/>
		<path class="st3" d="M95.3,142.6h-8.6l-11.5-27.2l-6.3,27.2h-9.3l9.1-39.3H80l9.9,22.7l5.2-22.7h9.4L95.3,142.6z"/>
		<path class="st3" d="M148.8,103.3l-5.7,24.5c-1.3,5.4-3.5,9.4-6.5,11.8s-7.5,3.7-13.3,3.7c-5.2,0-9.1-0.9-11.7-2.8
			c-2.7-1.9-4-4.7-4-8.4c0-0.8,0.1-1.6,0.2-2.3c0.1-0.7,0.3-1.5,0.4-2.2l5.6-24.3H124l-5.6,24.4c-0.1,0.5-0.2,1-0.3,1.6
			c-0.1,0.6-0.1,1.1-0.1,1.5c0,1.7,0.5,2.9,1.5,3.8s2.6,1.3,4.9,1.3c2.2,0,4-0.6,5.4-1.8s2.4-3.1,3-5.7l5.8-24.9h10.2V103.3z"/>
		<path class="st3" d="M190.3,142.6h-10.1l5.9-25.7l-10.8,16.5h-7l-3.5-17.5l-6.1,26.7h-9.6l9.1-39.3h11.6l4.3,19.7l13.3-19.7h11.9
			L190.3,142.6z"/>
	</g>
	<g class="st4">
		<path class="st5" d="M-59.3,144.5h-10.2l-0.9-8h-14.4l-4.6,8H-100l23.5-39.3h11.7L-59.3,144.5z M-71.1,129.4l-1.6-14l-8,14H-71.1z
			"/>
		<path class="st5" d="M-14.6,115.1c0,3.1-1,5.8-2.9,7.9s-4.5,3.8-7.8,4.9l9.1,16.6h-11.3l-7.4-14.4h-5.7l-3.3,14.4H-54l9.1-39.3
			h15.3c4.8,0,8.5,0.8,11.1,2.4C-15.9,109.3-14.6,111.8-14.6,115.1z M-25.5,116.8c0-1.6-0.5-2.7-1.5-3.4c-1-0.7-2.5-1-4.5-1h-5
			l-2.4,10.5h5c2.7,0,4.8-0.5,6.2-1.6C-26.3,120.3-25.5,118.8-25.5,116.8z"/>
		<path class="st5" d="M9.4,144.5h-23l1.6-7h6.4l5.9-25.3h-6.4l1.6-7h23l-1.6,7h-6.4l-5.9,25.3H11L9.4,144.5z"/>
		<path class="st5" d="M61.1,119.8c0,3.2-0.5,6.4-1.6,9.5c-1.1,3.1-2.7,5.8-4.7,8.1c-2.3,2.5-4.9,4.5-7.9,5.8s-6.5,2-10.4,2
			c-5.4,0-9.6-1.4-12.6-4.2c-3-2.8-4.5-6.6-4.5-11.4c0-3.4,0.6-6.7,1.7-9.7c1.2-3.1,2.8-5.8,5-8.1c2.1-2.3,4.7-4.1,7.8-5.4
			c3.1-1.4,6.5-2,10.2-2c5.4,0,9.6,1.4,12.6,4.2C59.6,111.4,61.1,115.1,61.1,119.8z M46.6,133.2c1.2-1.6,2.1-3.4,2.8-5.4
			c0.7-2.1,1-4.4,1-7.1c0-2.8-0.7-5-2-6.6s-3.3-2.4-5.8-2.4c-1.6,0-3.2,0.4-4.7,1.1c-1.5,0.7-2.9,1.9-4.1,3.4
			c-1.2,1.5-2.2,3.3-2.9,5.4c-0.7,2.2-1.1,4.6-1.1,7.3c0,3,0.7,5.3,2.1,6.8c1.4,1.5,3.3,2.3,5.7,2.3c1.7,0,3.3-0.4,4.9-1.3
			C44.1,135.8,45.5,134.8,46.6,133.2z"/>
		<path class="st5" d="M99.4,144.5h-8.7l-11.5-27.2l-6.3,27.2h-9.3l9.1-39.3H84l9.9,22.7l5.2-22.7h9.4L99.4,144.5z"/>
		<path class="st5" d="M152.8,105.2l-5.7,24.5c-1.3,5.4-3.5,9.4-6.5,11.8c-3,2.4-7.5,3.7-13.3,3.7c-5.2,0-9.1-0.9-11.7-2.8
			c-2.6-1.9-4-4.7-4-8.4c0-0.8,0.1-1.6,0.2-2.3c0.1-0.7,0.3-1.5,0.4-2.2l5.6-24.3H128l-5.6,24.3c-0.1,0.5-0.2,1-0.3,1.6
			c-0.1,0.6-0.1,1.1-0.1,1.5c0,1.7,0.5,2.9,1.5,3.8c1,0.9,2.6,1.3,4.9,1.3c2.2,0,4-0.6,5.4-1.8c1.4-1.2,2.4-3.1,3-5.7l5.8-24.9
			L152.8,105.2L152.8,105.2z"/>
		<path class="st5" d="M194.3,144.5h-10.1l5.9-25.7l-10.8,16.5h-7l-3.4-17.6l-6.2,26.8h-9.6l9.1-39.3h11.6l4.3,19.7l13.3-19.7h11.9
			L194.3,144.5z"/>
	</g>
</g>
</svg>
